<?xml version="1.0" encoding="UTF-8" standalone="no"?>
<svg
   viewBox="0 0 24 24"
   fill="none"
   stroke="#000000"
   stroke-linecap="round"
   stroke-linejoin="round"
   id="Meeple--Streamline-Tabler"
   height="24"
   width="24"
   version="1.1"
   sodipodi:docname="meeple.svg"
   inkscape:export-filename="meeple.png"
   inkscape:export-xdpi="148"
   inkscape:export-ydpi="148"
   inkscape:version="1.2.2 (b0a8486541, 2022-12-01)"
   xmlns:inkscape="http://www.inkscape.org/namespaces/inkscape"
   xmlns:sodipodi="http://sodipodi.sourceforge.net/DTD/sodipodi-0.dtd"
   xmlns="http://www.w3.org/2000/svg"
   xmlns:svg="http://www.w3.org/2000/svg">
  <defs
     id="defs9" />
  <sodipodi:namedview
     id="namedview7"
     pagecolor="#ffffff"
     bordercolor="#000000"
     borderopacity="0.25"
     inkscape:showpageshadow="2"
     inkscape:pageopacity="0.0"
     inkscape:pagecheckerboard="0"
     inkscape:deskcolor="#d1d1d1"
     showgrid="false"
     inkscape:zoom="43.875"
     inkscape:cx="12.011396"
     inkscape:cy="12.022792"
     inkscape:window-width="1504"
     inkscape:window-height="1282"
     inkscape:window-x="26"
     inkscape:window-y="23"
     inkscape:window-maximized="0"
     inkscape:current-layer="Meeple--Streamline-Tabler" />
  <desc
     id="desc2">
    Meeple Streamline Icon: https://streamlinehq.com
  </desc>
  <path
     d="M9 20H4a1 1 0 0 1 -1 -1c0 -2 3.378 -4.907 4 -6 -1 0 -4 -0.5 -4 -2 0 -2 4 -3.5 6 -4 0 -1.5 0.5 -4 3 -4s3 2.5 3 4c2 0.5 6 2 6 4 0 1.5 -3 2 -4 2 0.622 1.093 4 4 4 6a1 1 0 0 1 -1 1h-5c-1 0 -2 -4 -3 -4s-2 4 -3 4z"
     stroke-width="2"
     id="path4" />
</svg>
